# xmcd
# 
# Track frame offsets:
#     150
#     15120
#     27865
#     41432
#     56450
#     67885
#     83740
#     97837
#     109747
#     119827
# 
# Disc length: 1747
# 
# Revision: 1
# Processed by: cddbd v1.5.2PL0 Copyright (c) Steve Scherf et al.
# Submitted via: fre:ac v1.0.17
# 
DISCID=6d06d10a
DTITLE=Randy Travis - Wind In The Wire
DYEAR=1993
DGENRE=Country
TTITLE0=Down At The Old Corral
TTITLE1=Cowboy Boogie
TTITLE2=Blue Mesa
TTITLE3=Memories Of Old Santa Fe
TTITLE4=Roamin' Wyomin'
TTITLE5=Wind In The Wire
TTITLE6=The Old Chisholm Trail
TTITLE7=Paniolo Country
TTITLE8=Hula Hands
TTITLE9=Beyond The Reef
EXTD=
EXTT0=
EXTT1=
EXTT2=
EXTT3=
EXTT4=
EXTT5=
EXTT6=
EXTT7=
EXTT8=
EXTT9=
PLAYORDER=
